<?xml version="1.0" standalone="no"?>
<!DOCTYPE svg PUBLIC "-//W3C//DTD SVG 20010904//EN"
 "http://www.w3.org/TR/2001/REC-SVG-20010904/DTD/svg10.dtd">
<svg version="1.0" xmlns="http://www.w3.org/2000/svg"
 width="681.000000pt" height="302.000000pt" viewBox="0 0 681.000000 302.000000"
 preserveAspectRatio="xMidYMid meet">

<g transform="translate(0.000000,302.000000) scale(0.100000,-0.100000)"
fill="#000000" stroke="none">
<path d="M950 2703 l0 -98 737 2 738 1 3 96 3 96 -741 0 -740 0 0 -97z"/>
<path d="M2920 2790 c-108 -12 -166 -27 -238 -62 -166 -82 -252 -235 -239
-428 3 -47 14 -107 24 -133 48 -128 167 -213 396 -282 l47 -14 0 114 0 114
-37 10 c-86 24 -165 130 -167 225 -1 113 77 181 246 213 82 15 303 14 519 -3
l76 -6 6 38 c4 22 7 74 7 117 l0 77 -67 0 c-38 0 -99 5 -138 9 -109 14 -352
20 -435 11z"/>
<path d="M4283 2763 c-8 -21 -64 -166 -124 -323 -59 -157 -128 -339 -153 -405
-25 -66 -46 -123 -46 -127 0 -5 51 -8 113 -8 l112 0 43 118 c24 64 75 201 113
303 38 102 69 191 69 196 0 6 6 16 14 22 10 9 32 -40 113 -262 56 -149 109
-296 119 -324 l19 -53 112 0 c62 0 113 4 113 9 0 9 -205 555 -288 766 l-47
120 -133 3 -133 3 -16 -38z"/>
<path d="M1577 2353 c-4 -3 -7 -298 -7 -655 l0 -648 120 0 120 0 0 655 0 655
-113 0 c-63 0 -117 -3 -120 -7z"/>
<path d="M3157 2023 c-4 -3 -7 -53 -7 -109 l0 -104 43 -21 c139 -70 209 -202
167 -314 -33 -88 -89 -132 -212 -167 -96 -27 -313 -28 -526 -3 -84 10 -154 16
-156 14 -3 -2 -8 -54 -12 -116 l-7 -111 64 -6 c35 -3 123 -10 194 -16 208 -18
404 -14 518 9 124 25 194 57 260 120 101 96 142 210 135 376 -6 133 -39 205
-133 294 -69 64 -120 94 -231 136 -70 26 -86 29 -97 18z"/>
<path d="M3870 1686 c0 -2 -48 -129 -106 -282 -58 -154 -112 -296 -119 -316
l-14 -38 123 0 124 0 78 223 79 222 391 3 c306 2 393 -1 401 -10 9 -12 54
-133 125 -340 l33 -98 124 0 c113 0 123 1 116 18 -4 9 -45 118 -92 242 -47
124 -98 260 -115 303 l-29 77 -560 0 c-307 0 -559 -2 -559 -4z"/>
<path d="M1201 522 c-54 -29 -76 -82 -76 -177 0 -95 22 -148 76 -177 40 -23
105 -20 145 7 86 56 86 284 0 340 -40 27 -105 30 -145 7z m122 -42 c57 -45 58
-218 2 -267 -28 -25 -74 -30 -107 -12 -64 34 -65 251 -1 288 29 17 78 13 106
-9z"/>
<path d="M1860 529 c-47 -19 -60 -39 -60 -90 0 -40 4 -51 30 -72 16 -14 52
-33 80 -42 75 -25 101 -74 60 -115 -31 -31 -93 -27 -119 6 -12 15 -21 33 -21
40 0 8 -9 14 -20 14 -30 0 -27 -51 6 -83 47 -47 144 -48 190 -2 19 19 24 35
24 73 0 65 -18 85 -105 119 -56 23 -72 34 -80 57 -8 24 -6 31 14 47 45 36 121
15 121 -34 0 -12 8 -17 26 -17 23 0 25 3 19 28 -15 63 -99 99 -165 71z"/>
<path d="M2224 530 c-40 -16 -66 -61 -61 -103 7 -52 25 -69 108 -102 83 -32
103 -61 71 -104 -39 -53 -142 -31 -142 29 0 15 -7 20 -25 20 -23 0 -25 -3 -19
-27 11 -47 24 -64 59 -79 45 -18 89 -18 130 1 38 19 55 51 55 104 0 49 -30 80
-102 105 -29 10 -61 26 -70 34 -40 34 -8 92 50 92 34 0 72 -29 72 -55 0 -8 9
-15 20 -15 23 0 27 28 9 62 -20 38 -104 59 -155 38z"/>
<path d="M2780 522 c-52 -25 -80 -88 -80 -177 1 -120 43 -183 133 -192 96 -10
152 60 152 192 0 96 -23 148 -75 177 -43 23 -85 23 -130 0z m112 -33 c30 -16
48 -70 48 -144 0 -107 -30 -155 -99 -155 -73 0 -115 99 -91 213 17 83 78 120
142 86z"/>
<path d="M3614 524 c-54 -26 -71 -100 -34 -146 10 -14 47 -36 80 -48 34 -13
68 -29 76 -37 22 -22 17 -69 -8 -87 -49 -34 -128 -7 -128 44 0 15 -7 20 -26
20 -24 0 -26 -3 -20 -32 17 -89 159 -119 220 -47 32 38 35 95 6 131 -11 14
-45 36 -77 48 -74 29 -93 46 -93 81 0 64 118 68 134 4 8 -32 46 -35 46 -4 0
33 -19 60 -55 75 -44 18 -82 17 -121 -2z"/>
<path d="M5144 530 c-40 -16 -66 -61 -61 -103 7 -52 25 -69 108 -102 83 -32
103 -61 71 -104 -39 -53 -142 -31 -142 29 0 15 -7 20 -25 20 -23 0 -25 -3 -19
-27 11 -47 24 -64 59 -79 45 -18 89 -18 130 1 38 19 55 51 55 104 0 49 -30 80
-102 105 -29 10 -61 26 -70 34 -40 34 -8 92 50 92 34 0 72 -29 72 -55 0 -8 9
-15 20 -15 23 0 27 28 9 62 -20 38 -104 59 -155 38z"/>
<path d="M5414 530 c-40 -16 -66 -61 -61 -103 7 -52 25 -69 108 -102 83 -32
103 -61 71 -104 -39 -53 -142 -31 -142 29 0 15 -7 20 -25 20 -23 0 -25 -3 -19
-27 11 -47 24 -64 59 -79 45 -18 89 -18 130 1 38 19 55 51 55 104 0 49 -30 80
-102 105 -29 10 -61 26 -70 34 -40 34 -8 92 50 92 34 0 72 -29 72 -55 0 -8 9
-15 20 -15 23 0 27 28 9 62 -20 38 -104 59 -155 38z"/>
<path d="M6261 522 c-54 -29 -76 -82 -76 -177 0 -132 55 -202 152 -192 90 9
133 72 133 192 0 81 -24 144 -64 170 -40 27 -105 30 -145 7z m122 -42 c57 -45
58 -218 2 -267 -28 -25 -74 -30 -107 -12 -64 34 -65 251 -1 288 29 17 78 13
106 -9z"/>
<path d="M100 510 c0 -17 7 -20 50 -20 l50 0 0 -165 c0 -158 1 -165 20 -165
19 0 20 7 20 165 l0 165 50 0 c43 0 50 3 50 20 0 19 -7 20 -120 20 -113 0
-120 -1 -120 -20z"/>
<path d="M445 518 c-2 -7 -24 -78 -50 -158 -25 -80 -50 -157 -55 -172 -8 -25
-7 -28 14 -28 18 0 25 8 35 40 l12 41 76 -3 76 -3 12 -35 c8 -23 19 -36 33
-38 12 -2 22 1 22 6 0 5 -25 87 -55 181 -30 94 -55 174 -55 176 0 11 -61 4
-65 -7z m64 -140 l28 -93 -54 -3 c-31 -2 -58 -1 -61 2 -3 3 8 48 24 100 15 53
30 94 32 92 2 -3 16 -46 31 -98z"/>
<path d="M610 526 c0 -2 27 -52 60 -111 58 -104 60 -110 60 -181 0 -67 2 -74
20 -74 18 0 20 7 20 78 0 75 2 79 59 182 33 58 55 107 50 108 -22 8 -40 -11
-79 -87 -23 -45 -46 -79 -51 -76 -4 3 -27 41 -50 85 -35 65 -47 80 -66 80 -13
0 -23 -2 -23 -4z"/>
<path d="M910 345 l0 -185 100 0 c93 0 100 1 100 20 0 18 -7 20 -80 20 l-80 0
0 165 c0 158 -1 165 -20 165 -19 0 -20 -7 -20 -185z"/>
<path d="M1450 345 c0 -178 1 -185 20 -185 18 0 20 7 20 85 l0 85 54 0 54 0
34 -85 c28 -71 37 -85 56 -85 12 0 22 4 22 8 0 4 -15 43 -33 87 l-34 80 28 23
c56 46 44 138 -22 161 -18 6 -70 11 -115 11 l-84 0 0 -185z m192 128 c22 -20
23 -61 1 -85 -13 -14 -31 -18 -85 -18 l-68 0 0 60 0 60 67 0 c48 0 72 -5 85
-17z"/>
<path d="M1730 468 c0 -58 12 -100 24 -87 3 3 9 38 12 77 7 69 6 72 -15 72
-19 0 -21 -5 -21 -62z"/>
<path d="M2440 345 c0 -178 1 -185 20 -185 18 0 20 7 20 74 l0 74 71 4 c65 3
74 6 100 36 32 35 38 81 17 127 -18 41 -57 55 -148 55 l-80 0 0 -185z m174
129 c21 -20 20 -83 -1 -106 -12 -13 -31 -18 -75 -18 l-58 0 0 70 0 70 59 0
c41 0 65 -5 75 -16z"/>
<path d="M3030 345 c0 -178 1 -185 20 -185 18 0 20 7 20 85 l0 85 54 0 54 0
34 -85 c28 -71 37 -85 56 -85 12 0 22 4 22 8 0 4 -15 43 -33 87 l-34 80 28 23
c56 46 44 138 -22 161 -18 6 -70 11 -115 11 l-84 0 0 -185z m192 128 c22 -20
23 -61 1 -85 -13 -14 -31 -18 -85 -18 l-68 0 0 60 0 60 67 0 c48 0 72 -5 85
-17z"/>
<path d="M3300 510 c0 -17 7 -20 50 -20 l50 0 0 -165 c0 -158 1 -165 20 -165
19 0 20 7 20 165 l0 165 50 0 c43 0 50 3 50 20 0 19 -7 20 -120 20 -113 0
-120 -1 -120 -20z"/>
<path d="M3961 363 c-72 -226 -68 -205 -40 -201 18 2 25 12 32 41 l9 37 79 0
78 0 11 -40 c9 -33 15 -40 35 -40 14 0 25 1 25 3 0 1 -26 83 -58 182 -57 178
-58 180 -88 183 l-30 3 -53 -168z m139 -75 c0 -5 -27 -8 -61 -8 -53 0 -60 2
-55 18 3 9 15 49 26 87 12 39 24 77 27 85 4 12 62 -156 63 -182z"/>
<path d="M4200 345 c0 -178 1 -185 20 -185 19 0 20 7 21 158 l0 157 43 -155
c36 -132 45 -155 62 -158 19 -3 25 12 63 150 23 84 44 158 46 163 2 6 4 -63 4
-152 1 -156 2 -163 21 -163 19 0 20 7 20 185 l0 185 -34 0 -34 0 -31 -116
c-18 -64 -36 -135 -40 -158 -9 -46 -10 -45 -40 79 -48 194 -48 195 -87 195
l-34 0 0 -185z"/>
<path d="M4550 345 l0 -185 80 0 c51 0 91 5 109 14 28 15 51 53 51 87 0 29
-26 75 -47 84 -16 6 -16 8 -2 18 46 35 51 97 10 138 -28 28 -34 29 -115 29
l-86 0 0 -185z m168 133 c17 -17 15 -74 -4 -92 -10 -11 -34 -16 -70 -16 l-54
0 0 60 0 60 58 0 c32 0 63 -5 70 -12z m4 -165 c22 -20 23 -70 1 -95 -12 -13
-31 -18 -75 -18 l-58 0 0 65 0 65 57 0 c38 0 62 -5 75 -17z"/>
<path d="M4895 518 c-2 -7 -24 -78 -50 -158 -25 -80 -50 -157 -55 -172 -8 -25
-7 -28 14 -28 18 0 25 8 35 40 l12 41 76 -3 76 -3 12 -35 c8 -23 19 -36 33
-38 12 -2 22 1 22 6 0 5 -25 87 -55 181 -30 94 -55 174 -55 176 0 11 -61 4
-65 -7z m64 -140 l28 -93 -54 -3 c-31 -2 -58 -1 -61 2 -3 3 8 48 24 100 15 53
30 94 32 92 2 -3 16 -46 31 -98z"/>
<path d="M5705 518 c-2 -7 -24 -78 -50 -158 -25 -80 -50 -157 -55 -172 -8 -25
-7 -28 14 -28 18 0 25 8 35 40 l12 41 76 -3 76 -3 12 -35 c8 -23 19 -36 33
-38 12 -2 22 1 22 6 0 5 -25 87 -55 181 -30 94 -55 174 -55 176 0 11 -61 4
-65 -7z m64 -140 l28 -93 -54 -3 c-31 -2 -58 -1 -61 2 -3 3 8 48 24 100 15 53
30 94 32 92 2 -3 16 -46 31 -98z"/>
<path d="M5900 344 l0 -186 84 3 c73 4 88 7 111 29 40 36 55 80 55 157 0 133
-49 183 -179 183 l-71 0 0 -186z m162 132 c59 -45 63 -193 6 -253 -17 -18 -32
-23 -75 -23 l-53 0 0 145 0 145 53 0 c28 0 60 -7 69 -14z"/>
<path d="M6510 345 l0 -185 25 0 c25 0 25 1 25 86 l0 85 51 -3 51 -3 33 -80
c28 -68 37 -80 59 -83 l26 -3 -36 85 -36 86 31 31 c23 22 31 40 31 65 0 79
-41 104 -170 104 l-90 0 0 -185z m191 135 c13 -7 19 -21 19 -45 0 -51 -21 -65
-96 -65 l-64 0 0 60 0 60 61 0 c33 0 69 -5 80 -10z"/>
</g>
</svg>
